<mxfile host="app.diagrams.net" modified="2024-10-16T21:53:18.689Z" agent="Mozilla/5.0 (Windows NT 10.0; Win64; x64) AppleWebKit/537.36 (KHTML, like Gecko) Chrome/130.0.0.0 Safari/537.36" version="24.5.5" etag="7ayOzN4ZITWqlYooiYAD" type="github">
  <diagram name="PÃ¡gina-1" id="J15s7T8eveoj1eSKxKJO">
    <mxGraphModel>
      <root>
        <mxCell id="0" />
        <mxCell id="1" parent="0" />
      </root>
    </mxGraphModel>
  </diagram>
</mxfile>
